<?xml version="1.0" encoding="UTF-8" standalone="no"?>
<!-- Created with Inkscape (http://www.inkscape.org/) -->

<svg
   width="158.75mm"
   height="158.75mm"
   viewBox="0 0 158.75 158.75"
   version="1.1"
   id="svg1"
   xmlns:inkscape="http://www.inkscape.org/namespaces/inkscape"
   xmlns:sodipodi="http://sodipodi.sourceforge.net/DTD/sodipodi-0.dtd"
   xmlns="http://www.w3.org/2000/svg"
   xmlns:svg="http://www.w3.org/2000/svg">
  <sodipodi:namedview
     id="namedview1"
     pagecolor="#ffffff"
     bordercolor="#000000"
     borderopacity="0.25"
     inkscape:showpageshadow="2"
     inkscape:pageopacity="0.0"
     inkscape:pagecheckerboard="0"
     inkscape:deskcolor="#d1d1d1"
     inkscape:document-units="mm"
     inkscape:zoom="0.88333333"
     inkscape:cx="300"
     inkscape:cy="300"
     inkscape:window-width="1366"
     inkscape:window-height="745"
     inkscape:window-x="-8"
     inkscape:window-y="-8"
     inkscape:window-maximized="1"
     inkscape:current-layer="layer1">
    <inkscape:page
       x="0"
       y="0"
       width="158.75"
       height="158.75"
       id="page2"
       margin="0"
       bleed="0" />
  </sodipodi:namedview>
  <defs
     id="defs1" />
  <g
     inkscape:label="Capa 1"
     inkscape:groupmode="layer"
     id="layer1"
     transform="translate(220.78868,-33.062263)">
    <g
       id="g14">
      <circle
         style="fill:#ffffff;fill-opacity:1;stroke:none;stroke-width:1.92715;stroke-linecap:butt;stroke-dasharray:none;stroke-opacity:1"
         id="path13"
         cx="-141.41368"
         cy="112.43726"
         r="79.375" />
      <g
         id="g13"
         transform="matrix(0.69095428,0,0,0.69095428,-211.10886,17.574495)">
        <path
           id="path1"
           style="fill:#003366;fill-opacity:1;stroke-width:8.99999;stroke-linecap:square"
           d="m 100.86774,45.390511 c 0,0 -10.216394,13.190889 -33.06206,24.656893 -22.845666,11.466004 -38.665857,10.086723 -38.665857,10.086723 0,0 -10.569872,64.048113 15.690516,102.548783 26.25972,38.49969 56.035891,46.51096 56.037401,46.51137 0.002,-4.1e-4 29.77822,-8.01168 56.03793,-46.51137 26.26039,-38.50067 15.69051,-102.548783 15.69051,-102.548783 0,0 -15.82018,1.379281 -38.66585,-10.086723 C 111.08467,58.5814 100.86774,45.390511 100.86774,45.390511 Z" />
        <path
           id="path7"
           style="baseline-shift:baseline;display:inline;overflow:visible;vector-effect:none;fill:#f39c12;fill-opacity:1;stroke-linecap:square;enable-background:accumulate;stop-color:#000000"
           d="M 100.86723,66.017676 C 94.551038,71.363938 86.007833,77.694422 74.533435,83.453304 61.861494,89.81322 50.858014,92.775971 42.703337,94.117253 42.237238,100.03805 41.85894,107.6661 42.130762,116.50968 c 0.59388,19.32149 4.671607,42.44342 15.092102,57.72103 11.915615,17.46962 24.3193,27.64019 33.517334,33.48426 4.416292,2.80595 7.770697,4.48703 10.129102,5.52318 2.35294,-1.03423 5.7061,-2.71432 10.12703,-5.52318 9.19816,-5.84408 21.60175,-16.01467 33.51733,-33.48426 10.4205,-15.27761 14.4977,-38.39954 15.09158,-57.72103 0.27182,-8.84358 -0.10595,-16.47163 -0.57205,-22.392427 -8.15467,-1.341282 -19.16023,-4.304033 -31.83217,-10.663949 -11.475,-5.759186 -20.01747,-12.089255 -26.33379,-17.435628 z m 0,12.765629 c 6.01933,4.518272 13.22456,9.278505 21.84983,13.607438 9.98631,5.012025 19.06863,8.067967 26.8025,9.954947 0.16855,4.17941 0.24842,8.76787 0.092,13.85755 -0.56308,18.31941 -4.74536,39.76354 -13.35939,52.39267 -11.10607,16.28275 -22.44028,25.48268 -30.61932,30.67926 -2.2368,1.42116 -3.24481,1.83311 -4.76198,2.64687 -1.52067,-0.81466 -2.532539,-1.22708 -4.767155,-2.64687 -8.178927,-5.19657 -19.513202,-14.39644 -30.61932,-30.67926 -8.614029,-12.62913 -12.796312,-34.07326 -13.359391,-52.39267 -0.15644,-5.08969 -0.07657,-9.67814 0.09198,-13.85755 7.733831,-1.88698 16.816274,-4.942964 26.802498,-9.954947 8.624717,-4.328656 15.828676,-9.089369 21.847768,-13.607438 z"
           sodipodi:nodetypes="cscssscssscsccscssscssscsc" />
        <path
           id="rect7"
           style="fill:#f39c12;fill-opacity:1;stroke:none;stroke-width:12.6327;stroke-linecap:square;stroke-dasharray:none;stroke-opacity:1"
           d="m 100.86657,114.14391 a 11.286491,11.286492 0 0 0 -11.284364,11.16542 c 0.0069,0.0682 0.06405,0.12104 0.134088,0.12104 h -0.13474 v 7.26069 h -0.88038 c -2.946456,0 -5.318454,2.372 -5.318454,5.31845 v 17.11293 c 0,2.94645 2.371998,5.31844 5.318454,5.31844 h 24.333536 c 2.94645,0 5.31858,-2.37199 5.31858,-5.31844 v -17.11293 c 0,-2.94645 -2.37213,-5.31845 -5.31858,-5.31845 h -0.88026 v -7.26069 h -0.13474 c 0.07,0 0.12724,-0.0528 0.1341,-0.12104 a 11.286491,11.286492 0 0 0 -11.28437,-11.16542 z m 0.002,3.53955 a 7.7469616,7.7469621 0 0 1 7.74691,7.74691 h 1.2e-4 v 7.26069 H 93.12095 v -7.26069 a 7.7469616,7.7469621 0 0 1 7.74704,-7.74691 z m 0,21.74422 a 3.8394198,3.8394198 0 0 1 3.83944,3.83945 3.8394198,3.8394198 0 0 1 -2.51423,3.60338 l 2.51398,6.83376 h -3.83947 -3.839443 l 2.513844,-6.83376 a 3.8394198,3.8394198 0 0 1 -2.513844,-3.60338 3.8394198,3.8394198 0 0 1 3.839443,-3.83945 z" />
      </g>
    </g>
  </g>
</svg>
